<svg width="16" height="16" viewBox="0 0 16 16" fill="none" xmlns="http://www.w3.org/2000/svg">
  <path d="M12.5 2.75C12.4897 3.25 12.3203 3.664 11.992 3.992C11.6637 4.32 11.2497 4.48933 10.75 4.5C10.25 4.48967 9.836 4.32033 9.508 3.992C9.18 3.66367 9.01067 3.24967 9 2.75C9.01033 2.25 9.17967 1.836 9.508 1.508C9.83633 1.18 10.2503 1.01067 10.75 1C11.25 1.01033 11.664 1.17967 11.992 1.508C12.32 1.83633 12.4893 2.25033 12.5 2.75ZM12.5 8C12.4897 8.5 12.3203 8.914 11.992 9.242C11.6637 9.57 11.2497 9.73933 10.75 9.75C10.25 9.73967 9.836 9.57033 9.508 9.242C9.18 8.91367 9.01067 8.49967 9 8C9.01033 7.5 9.17967 7.086 9.508 6.758C9.83633 6.43 10.2503 6.26067 10.75 6.25C11.25 6.26033 11.664 6.42967 11.992 6.758C12.32 7.08633 12.4893 7.50033 12.5 8ZM12.5 13.25C12.4897 13.75 12.3203 14.164 11.992 14.492C11.6637 14.82 11.2497 14.9893 10.75 15C10.25 14.9897 9.836 14.8203 9.508 14.492C9.18 14.1637 9.01067 13.7497 9 13.25C9.01033 12.75 9.17967 12.336 9.508 12.008C9.83633 11.68 10.2503 11.5107 10.75 11.5C11.25 11.5103 11.664 11.6797 11.992 12.008C12.32 12.3363 12.4893 12.7503 12.5 13.25Z" fill="#606266"/>
  <path d="M6.5 2.75C6.48967 3.25 6.32033 3.664 5.992 3.992C5.66367 4.32 5.24967 4.48933 4.75 4.5C4.25 4.48967 3.836 4.32033 3.508 3.992C3.18 3.66367 3.01067 3.24967 3 2.75C3.01033 2.25 3.17967 1.836 3.508 1.508C3.83633 1.18 4.25033 1.01067 4.75 1C5.25 1.01033 5.664 1.17967 5.992 1.508C6.32 1.83633 6.48933 2.25033 6.5 2.75ZM6.5 8C6.48967 8.5 6.32033 8.914 5.992 9.242C5.66367 9.57 5.24967 9.73933 4.75 9.75C4.25 9.73967 3.836 9.57033 3.508 9.242C3.18 8.91367 3.01067 8.49967 3 8C3.01033 7.5 3.17967 7.086 3.508 6.758C3.83633 6.43 4.25033 6.26067 4.75 6.25C5.25 6.26033 5.664 6.42967 5.992 6.758C6.32 7.08633 6.48933 7.50033 6.5 8ZM6.5 13.25C6.48967 13.75 6.32033 14.164 5.992 14.492C5.66367 14.82 5.24967 14.9893 4.75 15C4.25 14.9897 3.836 14.8203 3.508 14.492C3.18 14.1637 3.01067 13.7497 3 13.25C3.01033 12.75 3.17967 12.336 3.508 12.008C3.83633 11.68 4.25033 11.5107 4.75 11.5C5.25 11.5103 5.664 11.6797 5.992 12.008C6.32 12.3363 6.48933 12.7503 6.5 13.25Z" fill="#606266"/>
</svg>
