<?xml version="1.0" encoding="UTF-8"?>
<svg width="100%" height="100%" viewBox="0 0 260 79" version="1.1" xmlns="http://www.w3.org/2000/svg" xmlns:xlink="http://www.w3.org/1999/xlink">
    <title>ADC Logo Outlines</title>
    <g id="Page-1" stroke="none" stroke-width="1" fill="none" fill-rule="evenodd">
        <g id="ADC-Logo-Outlines" transform="translate(0.027997, 0.786662)" fill-rule="nonzero">
            <g id="SvgjsG1187" transform="translate(45.103407, 22.110559) rotate(2.000000) translate(-45.103407, -22.110559) translate(9.972000, 1.213338)">
                <path d="M70.0000059,23.9140066 C69.937613,23.9140066 69.937613,23.9140066 70.0000059,23.9140066 L70.0000059,23.9140066 C69.937613,23.9140066 70.0000059,23.9140066 70.0000059,23.9140066 Z" id="Path" fill="#FFD6B6"></path>
                <path d="M27.6025898,19.8825085 C27.572252,19.8727775 27.5419141,19.8699155 27.5104315,19.8750672 C27.4234248,19.8893775 27.2225082,19.9323084 26.9935434,20.0519425 C26.9620607,20.0685424 26.9231367,20.0685424 26.8922264,20.0519425 C26.6632616,19.9323084 26.4629174,19.8893775 26.3753383,19.8750672 C26.3438557,19.8699155 26.3135178,19.8727775 26.28318,19.8825085 C25.3283967,20.1858869 24.7805984,21.3158283 24.7805984,21.3158283 C24.7805984,21.3158283 24.952322,21.490414 25.2179212,21.4486279 C25.3896448,21.4217245 25.8166642,21.2866353 26.0977185,21.194477 C26.2717318,21.1372358 26.4577657,21.1423875 26.6294893,21.2076424 L26.6294893,21.2076424 C26.8321232,21.2849181 27.0536466,21.2849181 27.2557081,21.2076424 C27.4274317,21.1423875 27.6134656,21.1372358 27.7874789,21.194477 C28.0685332,21.2866353 28.496125,21.4211521 28.6678486,21.4486279 C28.9334478,21.490414 29.1051714,21.3158283 29.1051714,21.3158283 C29.1051714,21.3158283 28.5573731,20.1858869 27.6025898,19.8825085 Z" id="Path" fill="#D26E4B"></path>
                <path d="M55.7045872,6.7284795 C55.7045872,6.7284795 55.7045872,6.72790708 55.7045872,6.7284795 C55.6925666,6.7095899 55.6776839,6.69298995 55.6622287,6.67867965 C55.6192978,6.6386108 55.5632015,6.61113502 55.501381,6.60369367 C55.4939396,6.60312126 55.4870707,6.60254884 55.4802017,6.60197643 C47.7892733,6.21445347 36.4944387,7.38904301 34.7852163,7.57450451 L33.9907083,5.5418693 C32.2666032,1.13028959 27.0313226,-1.11184843 22.3169369,0.54700171 L21.2539677,0.920786782 C18.8767404,1.75650838 17.0060978,3.42451711 15.986632,5.6174277 C15.0421521,7.64891808 14.9534282,9.90822846 15.7376327,11.9792153 L16.5058097,14.0066988 C15.0347107,14.9534683 5.67291154,21.0364912 0.0941836534,26.0817311 C0.00545978482,26.1624412 -0.0243056421,26.2895167 0.0209149103,26.401137 C0.0644182265,26.5093229 0.169742045,26.580302 0.286514104,26.580302 C0.289376164,26.580302 0.292238225,26.580302 0.295100285,26.580302 C0.395272394,26.5774399 7.98087695,26.2935235 18.0965428,22.115488 C18.0066741,23.4555046 17.6626545,24.9603759 16.796595,26.4286128 C16.2951621,27.2786447 15.6311641,28.0176287 14.8876008,28.6661715 C13.0095169,30.3055596 7.37469258,35.9054668 10.3976006,41.794442 C10.3976006,41.794442 10.5698967,38.1802323 13.4405431,36.3296241 C14.1949822,35.8436463 15.0713451,35.5809091 15.9631631,35.4784474 L17.7130267,35.2769583 C17.7130267,35.2769583 19.0908225,35.0714624 20.5229975,34.4732918 C21.8790417,33.9066039 22.8698869,32.727435 23.1961618,31.2941153 C23.5310228,29.8218715 23.7010292,27.5001682 23.0988517,24.0599717 C23.832684,24.5814391 24.6649711,25.0279205 25.5779684,25.3839608 C25.9397328,25.5276362 26.3656073,25.5974705 26.8802058,25.5974705 C27.3948042,25.5974705 27.8212512,25.5276362 28.1812984,25.3845332 C28.9769511,25.0742859 29.7073489,24.6942043 30.3667676,24.2591711 L30.1423821,28.7651988 C30.1423821,28.7651988 30.04221,31.4389355 31.1217791,33.0668754 C32.2019207,34.6948153 34.8081127,34.6816498 34.8081127,34.6816498 C34.8081127,34.6816498 32.6077608,33.6175358 32.1961965,31.2563361 C31.9220112,29.6822029 32.2998031,28.3702345 32.5820023,27.6707469 C32.6982019,27.3828237 32.8121119,27.0949004 32.9202978,26.8046875 C33.1899039,26.085738 33.4829788,25.3765194 33.804102,24.6787491 C34.5694169,23.0153197 35.6770342,19.4257237 36.0256332,15.3976601 C48.9226492,12.5693721 55.5248499,7.21102286 55.6484909,7.1085611 C55.6490633,7.1085611 55.6490633,7.1085611 55.6490633,7.10798869 C55.6490633,7.10798869 55.6490633,7.10798869 55.6496357,7.10798869 L55.6496357,7.10798869 C55.6496357,7.10798869 55.6496357,7.10798869 55.6496357,7.10798869 L55.6502081,7.10798869 C55.6502081,7.10798869 55.6513529,7.10798869 55.6513529,7.10684386 C55.6513529,7.10684386 55.6513529,7.10684386 55.6513529,7.10684386 C55.6633736,7.09654045 55.6748218,7.08566462 55.6851252,7.07364396 C55.6851252,7.07364396 55.6851252,7.07364396 55.6856976,7.07307155 C55.6856976,7.07307155 55.6856976,7.07307155 55.6856976,7.07307155 C55.7217596,7.03071306 55.7458009,6.97690633 55.751525,6.91737547 C55.7532423,6.90478241 55.7532423,6.89218934 55.7532423,6.87959628 C55.751525,6.82407231 55.7332078,6.77198281 55.7045872,6.7284795 Z M28.0754022,25.1183616 C27.7485549,25.2488715 27.357025,25.3118369 26.879061,25.3118369 C26.4016693,25.3118369 26.0101395,25.2488715 25.6815749,25.1177892 C24.7502605,24.7548799 23.9042355,24.2986675 23.1652515,23.7611726 L23.0204313,23.6587109 C22.0627859,22.9952853 21.3369674,22.0221848 20.9156722,20.8716366 C23.43543,19.6959022 26.0713875,18.2843341 28.7617242,16.5756841 C30.5568084,15.4354393 32.3026652,14.4434492 33.992998,13.5642243 L33.992998,15.5029839 C33.992998,15.6214732 33.9878463,15.7399625 33.9792601,15.8584518 C33.954074,16.1795749 33.9088534,16.5058498 33.8441708,16.8286902 L33.0840076,20.0811355 C32.7428501,21.5768482 31.9099905,22.8481754 30.7376906,23.6598557 L30.5917255,23.7628898 C29.8544588,24.2986675 29.0084338,24.7548799 28.0754022,25.1183616 Z M36.5745763,12.280304 L36.1332467,13.0141363 C36.1338191,12.8395506 36.1361087,12.6661097 36.1326742,12.4909517 C36.2803566,12.420545 36.4286113,12.3484211 36.5745763,12.280304 Z M36.1195088,13.8704647 L37.2643329,11.9654774 C37.4526564,11.880188 37.6398352,11.795471 37.8264415,11.7130437 L36.085164,14.6111659 C36.1000468,14.3656011 36.1109226,14.1183191 36.1195088,13.8704647 Z M36.5333627,14.6993174 L38.5053222,11.4176791 C38.6902113,11.3386862 38.8722383,11.2625554 39.0548378,11.1864246 L37.0147612,14.5814005 C36.8521962,14.6197521 36.6982174,14.6615382 36.5333627,14.6993174 Z M37.6014836,14.4377251 L39.720553,10.9110944 C39.9020076,10.8378256 40.0800278,10.7685638 40.2591927,10.6981571 L38.0828821,14.3198082 C37.9248964,14.3604494 37.761759,14.3982286 37.6014836,14.4377251 Z M38.6747562,14.168119 L40.9117425,10.4457234 C41.0897626,10.3781788 41.2672104,10.3112065 41.4423685,10.246524 L39.167603,14.0318849 C39.0021759,14.0771055 38.8424729,14.1240432 38.6747562,14.168119 Z M39.7680632,13.8658854 L42.0823251,10.0158419 C42.2569108,9.95344901 42.4320689,9.89048369 42.6037925,9.83095283 L40.26091,13.7296513 C40.101207,13.7760167 39.9306282,13.8200924 39.7680632,13.8658854 Z M40.8745357,13.5413278 L43.232301,9.61801555 C43.404597,9.56077434 43.574031,9.50525038 43.7434649,9.45029882 L41.3782583,13.3856317 C41.2116864,13.4377212 41.0445421,13.4898107 40.8745357,13.5413278 Z M41.9936013,13.1961633 L44.3633872,9.25281666 C44.5333936,9.20015475 44.6988206,9.15092731 44.8653926,9.10055505 L42.5087721,13.02215 C42.3359037,13.0799637 42.1704766,13.1389221 41.9936013,13.1961633 Z M43.1389978,12.8074955 L45.474439,8.92139008 C45.6404385,8.87330747 45.8070104,8.82522485 45.9695754,8.7800043 L43.6547411,12.6323374 C43.4881692,12.6907235 43.3090042,12.7485371 43.1389978,12.8074955 Z M44.299277,12.3919244 L46.5671736,8.61801169 C46.7314559,8.57450837 46.8940209,8.53157747 47.0548687,8.4903638 L44.8281858,12.1950146 C44.6553173,12.260842 44.4767248,12.326097 44.299277,12.3919244 Z M45.4807355,11.9425809 L47.6450255,8.34210908 C47.8075905,8.30261265 47.9655762,8.26597828 48.123562,8.22877149 L46.0233821,11.7233471 C45.8436448,11.7960434 45.6656246,11.8693122 45.4807355,11.9425809 Z M46.6868077,11.4525962 L48.7034154,8.09711672 C48.8625459,8.06162717 49.0211041,8.02671004 49.1756553,7.99408255 L47.2437646,11.2093211 C47.0577307,11.2900312 46.8791382,11.3707413 46.6868077,11.4525962 Z M47.9226453,10.9128116 L49.747495,7.87616567 C49.9060531,7.844683 50.0588871,7.8160624 50.2117212,7.7874418 L48.494485,10.6449228 C48.3032994,10.7347915 48.1218447,10.8229429 47.9226453,10.9128116 Z M49.1928277,10.3163583 L50.7732574,7.68612486 C50.9289535,7.65864909 51.0812151,7.63289054 51.2300422,7.60884924 L49.7789776,10.0232833 C49.5855024,10.1200209 49.3971788,10.2167586 49.1928277,10.3163583 Z M50.5030789,9.65178786 L51.7835647,7.52127019 C51.9375435,7.49837371 52.0880879,7.47604964 52.2334805,7.45601522 L51.1069736,9.3306647 C50.9140707,9.43598852 50.7091472,9.54360198 50.5030789,9.65178786 Z M52.493928,8.53959124 C52.2930114,8.65922536 52.084081,8.78172154 51.8608403,8.90879701 L52.777272,7.38446371 C52.9306784,7.36557411 53.0783607,7.34782934 53.2191741,7.33237421 L52.493928,8.53959124 Z M53.2861463,8.05475823 L53.7532345,7.27742266 C54.0577578,7.24880205 54.3290811,7.2270504 54.5551838,7.21216768 C54.2397848,7.43540838 53.8076137,7.72504888 53.2861463,8.05475823 Z" id="Shape" fill="#000000"></path>
                <path d="M27.4846729,21.6524066 C27.4846729,21.6524066 27.2173565,21.7903579 26.9425987,21.7903579 C26.6678409,21.7903579 26.4005245,21.6524066 26.4005245,21.6524066 C25.4543274,21.1509736 24.9872391,21.8241302 24.9872391,21.8241302 C24.9872391,21.8241302 25.8452848,23.2105122 26.9431711,23.199064 C28.0410574,23.2105122 28.8991031,21.8241302 28.8991031,21.8241302 C28.8991031,21.8241302 28.43087,21.1509736 27.4846729,21.6524066 Z" id="Path" fill="#D26E4B"></path>
            </g>
            <path d="M6.816,67.2133384 C9.728,67.2133384 11.96,66.4533384 13.512,64.9333384 C15.064,63.4133384 15.84,61.0533384 15.84,57.8533384 L15.84,57.8533384 L15.84,41.8693384 C15.84,39.0533384 15.112,36.8773384 13.656,35.3413384 C12.2,33.8053384 10.064,33.0373384 7.248,33.0373384 L7.248,33.0373384 L0,33.0373384 L0,67.2133384 L6.816,67.2133384 Z M7.152,62.6053384 L4.896,62.6053384 L4.896,37.6453384 L7.152,37.6453384 C8.592,37.6453384 9.584,38.0133384 10.128,38.7493384 C10.672,39.4853384 10.944,40.5253384 10.944,41.8693384 L10.944,41.8693384 L10.944,58.3333384 C10.944,59.8053384 10.656,60.8853384 10.08,61.5733384 C9.504,62.2613384 8.528,62.6053384 7.152,62.6053384 L7.152,62.6053384 Z M27.824,67.5013384 C28.944,67.5013384 29.952,67.3093384 30.848,66.9253384 C31.744,66.5413384 32.512,66.0133384 33.152,65.3413384 C34.464,64.0293384 35.12,62.3013384 35.12,60.1573384 L35.12,60.1573384 L30.224,60.1573384 C30.16,60.7013384 29.976,61.2453384 29.672,61.7893384 C29.368,62.3333384 28.752,62.6053384 27.824,62.6053384 C27.088,62.6053384 26.504,62.3973384 26.072,61.9813384 C25.64,61.5653384 25.424,60.9733384 25.424,60.2053384 L25.424,60.2053384 L25.424,56.8933384 L35.12,56.8933384 L35.12,50.1733384 C35.12,47.9973384 34.48,46.1893384 33.2,44.7493384 C32.56,44.0773384 31.784,43.5493384 30.872,43.1653384 C29.96,42.7813384 28.944,42.5893384 27.824,42.5893384 C26.288,42.5893384 24.984,42.9093384 23.912,43.5493384 C22.84,44.1893384 22.016,45.0373384 21.44,46.0933384 C21.088,46.7333384 20.848,47.4693384 20.72,48.3013384 C20.592,49.1333384 20.528,50.0453384 20.528,51.0373384 L20.528,51.0373384 L20.528,59.0533384 C20.528,60.0453384 20.592,60.9573384 20.72,61.7893384 C20.848,62.6213384 21.088,63.3573384 21.44,63.9973384 C22.016,65.0533384 22.84,65.9013384 23.912,66.5413384 C24.984,67.1813384 26.288,67.5013384 27.824,67.5013384 Z M30.224,53.0533384 L25.424,53.0533384 L25.424,50.2693384 C25.424,49.3413384 25.64,48.6453384 26.072,48.1813384 C26.504,47.7173384 27.088,47.4853384 27.824,47.4853384 C28.56,47.4853384 29.144,47.7173384 29.576,48.1813384 C30.008,48.6453384 30.224,49.3413384 30.224,50.2693384 L30.224,50.2693384 L30.224,53.0533384 Z M45.952,67.5013384 C47.008,67.5013384 47.984,67.3093384 48.88,66.9253384 C49.776,66.5413384 50.544,66.0133384 51.184,65.3413384 C51.824,64.6693384 52.328,63.8933384 52.696,63.0133384 C53.064,62.1333384 53.248,61.1813384 53.248,60.1573384 C53.248,58.7173384 52.904,57.3893384 52.216,56.1733384 C51.528,54.9573384 50.272,53.9973384 48.448,53.2933384 L48.448,53.2933384 L45.568,52.1413384 C44.64,51.7893384 44.064,51.3973384 43.84,50.9653384 C43.616,50.5333384 43.504,50.0933384 43.504,49.6453384 C43.504,49.0053384 43.712,48.4373384 44.128,47.9413384 C44.544,47.4453384 45.136,47.1973384 45.904,47.1973384 C46.544,47.1973384 47.112,47.4053384 47.608,47.8213384 C48.104,48.2373384 48.368,48.8613384 48.4,49.6933384 L48.4,49.6933384 L53.008,49.6933384 C53.008,48.7013384 52.832,47.7653384 52.48,46.8853384 C52.128,46.0053384 51.648,45.2453384 51.04,44.6053384 C50.432,43.9653384 49.704,43.4693384 48.856,43.1173384 C48.008,42.7653384 47.088,42.5893384 46.096,42.5893384 C45.104,42.5893384 44.176,42.7573384 43.312,43.0933384 C42.448,43.4293384 41.696,43.9173384 41.056,44.5573384 C40.384,45.1973384 39.856,45.9573384 39.472,46.8373384 C39.088,47.7173384 38.896,48.6693384 38.896,49.6933384 C38.896,51.3253384 39.336,52.7093384 40.216,53.8453384 C41.096,54.9813384 42.304,55.8373384 43.84,56.4133384 L43.84,56.4133384 L46.192,57.2773384 C47.12,57.6293384 47.76,58.0453384 48.112,58.5253384 C48.464,59.0053384 48.64,59.5813384 48.64,60.2533384 C48.64,61.0853384 48.36,61.7333384 47.8,62.1973384 C47.24,62.6613384 46.608,62.8933384 45.904,62.8933384 C44.976,62.8933384 44.328,62.6053384 43.96,62.0293384 C43.592,61.4533384 43.36,60.8293384 43.264,60.1573384 L43.264,60.1573384 L38.656,60.1573384 C38.688,61.3733384 38.912,62.4373384 39.328,63.3493384 C39.744,64.2613384 40.288,65.0213384 40.96,65.6293384 C42.304,66.8773384 43.968,67.5013384 45.952,67.5013384 Z M62.112,37.9333384 L62.112,33.0373384 L57.216,33.0373384 L57.216,37.9333384 L62.112,37.9333384 Z M62.112,67.2133384 L62.112,42.8773384 L57.216,42.8773384 L57.216,67.2133384 L62.112,67.2133384 Z M74.24,77.3413384 C75.52,77.3413384 76.624,77.1253384 77.552,76.6933384 C78.48,76.2613384 79.248,75.6933384 79.856,74.9893384 C80.464,74.3173384 80.904,73.5573384 81.176,72.7093384 C81.448,71.8613384 81.584,71.0213384 81.584,70.1893384 L81.584,70.1893384 L81.584,42.8773384 L76.688,42.8773384 L76.688,45.0853384 C76.368,44.7333384 76.064,44.4053384 75.776,44.1013384 C75.488,43.7973384 75.168,43.5333384 74.816,43.3093384 C74.464,43.0853384 74.072,42.9093384 73.64,42.7813384 C73.208,42.6533384 72.688,42.5893384 72.08,42.5893384 C70.864,42.5893384 69.952,42.7973384 69.344,43.2133384 C68.032,44.0133384 67.28,45.2133384 67.088,46.8133384 C66.992,47.6453384 66.944,48.9413384 66.944,50.7013384 L66.944,50.7013384 L66.944,59.9653384 C66.944,61.3093384 67.008,62.3813384 67.136,63.1813384 C67.264,63.9813384 67.472,64.6533384 67.76,65.1973384 C68.56,66.7333384 69.984,67.5013384 72.032,67.5013384 C73.024,67.5013384 73.896,67.2853384 74.648,66.8533384 C75.4,66.4213384 76.048,65.8053384 76.592,65.0053384 L76.592,65.0053384 L76.688,65.0053384 L76.688,69.8053384 C76.688,70.5733384 76.512,71.2053384 76.16,71.7013384 C75.808,72.1973384 75.232,72.4453384 74.432,72.4453384 C73.6,72.4453384 72.968,72.1893384 72.536,71.6773384 C72.104,71.1653384 71.872,70.6213384 71.84,70.0453384 L71.84,70.0453384 L66.944,70.0453384 C67.104,71.4853384 67.432,72.6613384 67.928,73.5733384 C68.424,74.4853384 69.024,75.2133384 69.728,75.7573384 C70.4,76.3333384 71.136,76.7413384 71.936,76.9813384 C72.736,77.2213384 73.504,77.3413384 74.24,77.3413384 Z M74.24,62.6053384 C73.312,62.6053384 72.68,62.3173384 72.344,61.7413384 C72.008,61.1653384 71.84,60.4933384 71.84,59.7253384 L71.84,59.7253384 L71.84,50.7973384 C71.84,49.8053384 72.032,49.0053384 72.416,48.3973384 C72.8,47.7893384 73.408,47.4853384 74.24,47.4853384 C74.976,47.4853384 75.568,47.7653384 76.016,48.3253384 C76.464,48.8853384 76.688,49.6133384 76.688,50.5093384 L76.688,50.5093384 L76.688,59.9653384 C76.688,60.7333384 76.456,61.3653384 75.992,61.8613384 C75.528,62.3573384 74.944,62.6053384 74.24,62.6053384 Z M91.312,67.2133384 L91.312,50.8453384 C91.312,49.7573384 91.488,48.9253384 91.84,48.3493384 C92.192,47.7733384 92.832,47.4853384 93.76,47.4853384 C94.528,47.4853384 95.12,47.7413384 95.536,48.2533384 C95.952,48.7653384 96.16,49.4693384 96.16,50.3653384 L96.16,50.3653384 L96.16,67.2133384 L101.056,67.2133384 L101.056,48.5413384 C101.056,47.4533384 100.912,46.5333384 100.624,45.7813384 C100.336,45.0293384 99.952,44.4133384 99.472,43.9333384 C98.992,43.4533384 98.448,43.1093384 97.84,42.9013384 C97.232,42.6933384 96.624,42.5893384 96.016,42.5893384 C94.896,42.5893384 93.976,42.8373384 93.256,43.3333384 C92.536,43.8293384 91.92,44.4613384 91.408,45.2293384 L91.408,45.2293384 L91.312,45.2293384 L91.312,42.8773384 L86.416,42.8773384 L86.416,67.2133384 L91.312,67.2133384 Z M112.752,67.5013384 C113.872,67.5013384 114.88,67.3093384 115.776,66.9253384 C116.672,66.5413384 117.44,66.0133384 118.08,65.3413384 C119.392,64.0293384 120.048,62.3013384 120.048,60.1573384 L120.048,60.1573384 L115.152,60.1573384 C115.088,60.7013384 114.904,61.2453384 114.6,61.7893384 C114.296,62.3333384 113.68,62.6053384 112.752,62.6053384 C112.016,62.6053384 111.432,62.3973384 111,61.9813384 C110.568,61.5653384 110.352,60.9733384 110.352,60.2053384 L110.352,60.2053384 L110.352,56.8933384 L120.048,56.8933384 L120.048,50.1733384 C120.048,47.9973384 119.408,46.1893384 118.128,44.7493384 C117.488,44.0773384 116.712,43.5493384 115.8,43.1653384 C114.888,42.7813384 113.872,42.5893384 112.752,42.5893384 C111.216,42.5893384 109.912,42.9093384 108.84,43.5493384 C107.768,44.1893384 106.944,45.0373384 106.368,46.0933384 C106.016,46.7333384 105.776,47.4693384 105.648,48.3013384 C105.52,49.1333384 105.456,50.0453384 105.456,51.0373384 L105.456,51.0373384 L105.456,59.0533384 C105.456,60.0453384 105.52,60.9573384 105.648,61.7893384 C105.776,62.6213384 106.016,63.3573384 106.368,63.9973384 C106.944,65.0533384 107.768,65.9013384 108.84,66.5413384 C109.912,67.1813384 111.216,67.5013384 112.752,67.5013384 Z M115.152,53.0533384 L110.352,53.0533384 L110.352,50.2693384 C110.352,49.3413384 110.568,48.6453384 111,48.1813384 C111.432,47.7173384 112.016,47.4853384 112.752,47.4853384 C113.488,47.4853384 114.072,47.7173384 114.504,48.1813384 C114.936,48.6453384 115.152,49.3413384 115.152,50.2693384 L115.152,50.2693384 L115.152,53.0533384 Z M129.344,67.2133384 L129.344,52.7653384 C129.344,51.7733384 129.504,50.9413384 129.824,50.2693384 C130.144,49.5973384 130.56,49.0533384 131.072,48.6373384 C131.552,48.2213384 132.088,47.9253384 132.68,47.7493384 C133.272,47.5733384 133.824,47.4853384 134.336,47.4853384 C134.848,47.4853384 135.344,47.5813384 135.824,47.7733384 L135.824,47.7733384 L135.824,42.5893384 C134.416,42.5893384 133.232,42.8453384 132.272,43.3573384 C131.312,43.8693384 130.336,44.5733384 129.344,45.4693384 L129.344,45.4693384 L129.344,42.8773384 L124.448,42.8773384 L124.448,67.2133384 L129.344,67.2133384 Z M156.384,67.5013384 C157.472,67.5013384 158.488,67.2853384 159.432,66.8533384 C160.376,66.4213384 161.2,65.8373384 161.904,65.1013384 C162.608,64.3653384 163.16,63.5253384 163.56,62.5813384 C163.96,61.6373384 164.16,60.6373384 164.16,59.5813384 L164.16,59.5813384 L164.16,57.4693384 L159.264,57.4693384 L159.264,59.1493384 C159.264,59.8213384 159.168,60.3813384 158.976,60.8293384 C158.784,61.2773384 158.544,61.6293384 158.256,61.8853384 C157.936,62.1413384 157.592,62.3253384 157.224,62.4373384 C156.856,62.5493384 156.512,62.6053384 156.192,62.6053384 C155.072,62.6053384 154.296,62.2693384 153.864,61.5973384 C153.432,60.9253384 153.216,60.0933384 153.216,59.1013384 L153.216,59.1013384 L153.216,41.6293384 C153.216,40.4773384 153.416,39.5253384 153.816,38.7733384 C154.216,38.0213384 155.024,37.6453384 156.24,37.6453384 C157.168,37.6453384 157.904,37.9973384 158.448,38.7013384 C158.992,39.4053384 159.264,40.2373384 159.264,41.1973384 L159.264,41.1973384 L159.264,42.8293384 L164.16,42.8293384 L164.16,40.9093384 C164.16,39.7253384 163.96,38.6293384 163.56,37.6213384 C163.16,36.6133384 162.608,35.7413384 161.904,35.0053384 C160.464,33.5013384 158.592,32.7493384 156.288,32.7493384 C155.104,32.7493384 154.024,32.9493384 153.048,33.3493384 C152.072,33.7493384 151.232,34.3013384 150.528,35.0053384 C149.824,35.7093384 149.28,36.5413384 148.896,37.5013384 C148.512,38.4613384 148.32,39.5013384 148.32,40.6213384 L148.32,40.6213384 L148.32,59.4373384 C148.32,61.0053384 148.568,62.2933384 149.064,63.3013384 C149.56,64.3093384 150.192,65.1333384 150.96,65.7733384 C151.728,66.4133384 152.592,66.8613384 153.552,67.1173384 C154.512,67.3733384 155.456,67.5013384 156.384,67.5013384 Z M175.664,67.5013384 L175.664,62.8933384 C174.736,62.7973384 174.104,62.5813384 173.768,62.2453384 C173.432,61.9093384 173.264,61.2773384 173.264,60.3493384 L173.264,60.3493384 L173.264,33.0373384 L168.368,33.0373384 L168.368,60.6853384 C168.368,62.1253384 168.536,63.2853384 168.872,64.1653384 C169.208,65.0453384 169.696,65.7253384 170.336,66.2053384 C170.976,66.7173384 171.744,67.0613384 172.64,67.2373384 C173.536,67.4133384 174.544,67.5013384 175.664,67.5013384 L175.664,67.5013384 Z M185.248,67.5013384 C186.784,67.5013384 188.088,67.1813384 189.16,66.5413384 C190.232,65.9013384 191.056,65.0533384 191.632,63.9973384 C191.984,63.3573384 192.224,62.6213384 192.352,61.7893384 C192.48,60.9573384 192.544,60.0453384 192.544,59.0533384 L192.544,59.0533384 L192.544,51.0373384 C192.544,50.0453384 192.48,49.1333384 192.352,48.3013384 C192.224,47.4693384 191.984,46.7333384 191.632,46.0933384 C191.056,45.0373384 190.232,44.1893384 189.16,43.5493384 C188.088,42.9093384 186.784,42.5893384 185.248,42.5893384 C183.712,42.5893384 182.408,42.9093384 181.336,43.5493384 C180.264,44.1893384 179.44,45.0373384 178.864,46.0933384 C178.512,46.7333384 178.272,47.4693384 178.144,48.3013384 C178.016,49.1333384 177.952,50.0453384 177.952,51.0373384 L177.952,51.0373384 L177.952,59.0533384 C177.952,60.0453384 178.016,60.9573384 178.144,61.7893384 C178.272,62.6213384 178.512,63.3573384 178.864,63.9973384 C179.44,65.0533384 180.264,65.9013384 181.336,66.5413384 C182.408,67.1813384 183.712,67.5013384 185.248,67.5013384 Z M185.248,62.6053384 C184.512,62.6053384 183.928,62.3733384 183.496,61.9093384 C183.064,61.4453384 182.848,60.7493384 182.848,59.8213384 L182.848,59.8213384 L182.848,50.2693384 C182.848,49.3413384 183.064,48.6453384 183.496,48.1813384 C183.928,47.7173384 184.512,47.4853384 185.248,47.4853384 C185.984,47.4853384 186.568,47.7173384 187,48.1813384 C187.432,48.6453384 187.648,49.3413384 187.648,50.2693384 L187.648,50.2693384 L187.648,59.8213384 C187.648,60.7493384 187.432,61.4453384 187,61.9093384 C186.568,62.3733384 185.984,62.6053384 185.248,62.6053384 Z M204.864,67.2133384 L204.864,62.6053384 C204.32,62.6053384 203.864,62.5893384 203.496,62.5573384 C203.128,62.5253384 202.816,62.4293384 202.56,62.2693384 C202.304,62.1093384 202.12,61.8693384 202.008,61.5493384 C201.896,61.2293384 201.84,60.7813384 201.84,60.2053384 L201.84,60.2053384 L201.84,46.7173384 L204.864,46.7173384 L204.864,42.8773384 L201.84,42.8773384 L201.84,35.4853384 L196.944,35.4853384 L196.944,42.8773384 L194.496,42.8773384 L194.496,46.7173384 L196.944,46.7173384 L196.944,61.5013384 C196.944,62.1413384 197.048,62.8053384 197.256,63.4933384 C197.464,64.1813384 197.792,64.7973384 198.24,65.3413384 C198.688,65.8853384 199.288,66.3333384 200.04,66.6853384 C200.792,67.0373384 201.728,67.2133384 202.848,67.2133384 L202.848,67.2133384 L204.864,67.2133384 Z M212.432,67.2133384 L212.432,50.8453384 C212.432,49.7573384 212.608,48.9253384 212.96,48.3493384 C213.312,47.7733384 213.952,47.4853384 214.88,47.4853384 C215.648,47.4853384 216.24,47.7413384 216.656,48.2533384 C217.072,48.7653384 217.28,49.4693384 217.28,50.3653384 L217.28,50.3653384 L217.28,67.2133384 L222.176,67.2133384 L222.176,48.5413384 C222.176,47.4533384 222.032,46.5333384 221.744,45.7813384 C221.456,45.0293384 221.072,44.4133384 220.592,43.9333384 C220.112,43.4533384 219.568,43.1093384 218.96,42.9013384 C218.352,42.6933384 217.744,42.5893384 217.136,42.5893384 C216.016,42.5893384 215.096,42.8373384 214.376,43.3333384 C213.656,43.8293384 213.04,44.4613384 212.528,45.2293384 L212.528,45.2293384 L212.432,45.2293384 L212.432,33.0373384 L207.536,33.0373384 L207.536,67.2133384 L212.432,67.2133384 Z M233.872,67.5013384 C234.992,67.5013384 236,67.3093384 236.896,66.9253384 C237.792,66.5413384 238.56,66.0133384 239.2,65.3413384 C240.512,64.0293384 241.168,62.3013384 241.168,60.1573384 L241.168,60.1573384 L236.272,60.1573384 C236.208,60.7013384 236.024,61.2453384 235.72,61.7893384 C235.416,62.3333384 234.8,62.6053384 233.872,62.6053384 C233.136,62.6053384 232.552,62.3973384 232.12,61.9813384 C231.688,61.5653384 231.472,60.9733384 231.472,60.2053384 L231.472,60.2053384 L231.472,56.8933384 L241.168,56.8933384 L241.168,50.1733384 C241.168,47.9973384 240.528,46.1893384 239.248,44.7493384 C238.608,44.0773384 237.832,43.5493384 236.92,43.1653384 C236.008,42.7813384 234.992,42.5893384 233.872,42.5893384 C232.336,42.5893384 231.032,42.9093384 229.96,43.5493384 C228.888,44.1893384 228.064,45.0373384 227.488,46.0933384 C227.136,46.7333384 226.896,47.4693384 226.768,48.3013384 C226.64,49.1333384 226.576,50.0453384 226.576,51.0373384 L226.576,51.0373384 L226.576,59.0533384 C226.576,60.0453384 226.64,60.9573384 226.768,61.7893384 C226.896,62.6213384 227.136,63.3573384 227.488,63.9973384 C228.064,65.0533384 228.888,65.9013384 229.96,66.5413384 C231.032,67.1813384 232.336,67.5013384 233.872,67.5013384 Z M236.272,53.0533384 L231.472,53.0533384 L231.472,50.2693384 C231.472,49.3413384 231.688,48.6453384 232.12,48.1813384 C232.552,47.7173384 233.136,47.4853384 233.872,47.4853384 C234.608,47.4853384 235.192,47.7173384 235.624,48.1813384 C236.056,48.6453384 236.272,49.3413384 236.272,50.2693384 L236.272,50.2693384 L236.272,53.0533384 Z M252,67.5013384 C253.056,67.5013384 254.032,67.3093384 254.928,66.9253384 C255.824,66.5413384 256.592,66.0133384 257.232,65.3413384 C257.872,64.6693384 258.376,63.8933384 258.744,63.0133384 C259.112,62.1333384 259.296,61.1813384 259.296,60.1573384 C259.296,58.7173384 258.952,57.3893384 258.264,56.1733384 C257.576,54.9573384 256.32,53.9973384 254.496,53.2933384 L254.496,53.2933384 L251.616,52.1413384 C250.688,51.7893384 250.112,51.3973384 249.888,50.9653384 C249.664,50.5333384 249.552,50.0933384 249.552,49.6453384 C249.552,49.0053384 249.76,48.4373384 250.176,47.9413384 C250.592,47.4453384 251.184,47.1973384 251.952,47.1973384 C252.592,47.1973384 253.16,47.4053384 253.656,47.8213384 C254.152,48.2373384 254.416,48.8613384 254.448,49.6933384 L254.448,49.6933384 L259.056,49.6933384 C259.056,48.7013384 258.88,47.7653384 258.528,46.8853384 C258.176,46.0053384 257.696,45.2453384 257.088,44.6053384 C256.48,43.9653384 255.752,43.4693384 254.904,43.1173384 C254.056,42.7653384 253.136,42.5893384 252.144,42.5893384 C251.152,42.5893384 250.224,42.7573384 249.36,43.0933384 C248.496,43.4293384 247.744,43.9173384 247.104,44.5573384 C246.432,45.1973384 245.904,45.9573384 245.52,46.8373384 C245.136,47.7173384 244.944,48.6693384 244.944,49.6933384 C244.944,51.3253384 245.384,52.7093384 246.264,53.8453384 C247.144,54.9813384 248.352,55.8373384 249.888,56.4133384 L249.888,56.4133384 L252.24,57.2773384 C253.168,57.6293384 253.808,58.0453384 254.16,58.5253384 C254.512,59.0053384 254.688,59.5813384 254.688,60.2533384 C254.688,61.0853384 254.408,61.7333384 253.848,62.1973384 C253.288,62.6613384 252.656,62.8933384 251.952,62.8933384 C251.024,62.8933384 250.376,62.6053384 250.008,62.0293384 C249.64,61.4533384 249.408,60.8293384 249.312,60.1573384 L249.312,60.1573384 L244.704,60.1573384 C244.736,61.3733384 244.96,62.4373384 245.376,63.3493384 C245.792,64.2613384 246.336,65.0213384 247.008,65.6293384 C248.352,66.8773384 250.016,67.5013384 252,67.5013384 Z" id="DesignerClothes" fill="#000000"></path>
            <path d="M75.2337213,27.5180259 C76.0149713,27.5180259 76.8626275,26.9555259 77.77669,25.8305259 C78.448565,25.0024009 78.7845025,24.4516197 78.7845025,24.1781822 C78.7845025,24.0531822 78.6790338,23.9281822 78.4680963,23.8031822 C77.7805963,25.2719322 77.1087213,26.0063072 76.4524713,26.0063072 C76.2571588,26.0063072 76.1595025,25.8383384 76.1595025,25.5024009 C76.1595025,25.2524009 76.2102838,24.7563072 76.3118463,24.0141197 L76.3118463,24.0141197 L76.417315,23.2641197 L77.167315,18.0844322 C77.1751275,18.0141197 77.2259088,17.7641197 77.3196588,17.3344322 L77.3196588,17.3344322 L77.4602838,16.7133384 C77.4680963,16.6820884 77.4915338,16.5961509 77.5305963,16.4555259 C76.9602838,16.2524009 76.2688775,16.1508384 75.4563775,16.1508384 C73.323565,16.1508384 71.4778619,17.019979 69.9192681,18.7582603 C68.3606744,20.4965415 67.5813775,22.5531822 67.5813775,24.9281822 C67.5813775,26.6547447 68.1165338,27.5180259 69.1868463,27.5180259 C69.9680963,27.5180259 70.8880181,27.0551353 71.9466119,26.129354 C73.0052056,25.2035728 73.9759088,24.0141197 74.8587213,22.5609947 L74.8587213,22.5609947 L74.729815,23.4281822 L74.5774713,24.4594322 L74.4602838,25.3969322 C74.4055963,25.8109947 74.3782525,26.1352134 74.3782525,26.3695884 C74.3782525,27.1352134 74.6634088,27.5180259 75.2337213,27.5180259 Z M70.4055963,25.8070884 C69.8040338,25.8070884 69.5032525,25.2992759 69.5032525,24.2836509 C69.5032525,22.3070884 69.8743463,20.6508384 70.6165338,19.3149009 C71.3587213,17.9789634 72.27669,17.3109947 73.37044,17.3109947 C74.0970025,17.3109947 74.8157525,17.5102134 75.52669,17.9086509 L75.52669,17.9086509 L75.33919,19.1742759 C75.05794,21.1039634 74.2532525,22.7836509 72.9251275,24.2133384 C71.9407525,25.2758384 71.1009088,25.8070884 70.4055963,25.8070884 Z M92.3127143,27.5180259 C93.0939643,27.5180259 93.9416206,26.9555259 94.8556831,25.8305259 C95.5353706,25.0024009 95.8752143,24.4516197 95.8752143,24.1781822 C95.8752143,24.0531822 95.7697456,23.9281822 95.5588081,23.8031822 C94.8713081,25.2719322 94.1955268,26.0063072 93.5314643,26.0063072 C93.3439643,26.0063072 93.2502143,25.8383384 93.2502143,25.5024009 C93.2502143,25.3383384 93.2736518,25.0570884 93.3205268,24.6586509 L93.3205268,24.6586509 L93.4025581,24.0141197 C93.4259956,23.8109947 93.4572456,23.5609947 93.4963081,23.2641197 L93.4963081,23.2641197 L94.1994331,18.3656822 C94.3088081,17.6547447 94.4728706,16.8461509 94.6916206,15.9399009 L94.6916206,15.9399009 L92.7931831,16.5844322 L92.3947456,19.3617759 C92.1916206,20.7836509 91.5334175,22.2211509 90.4201362,23.6742759 C89.306855,25.1274009 88.3088081,25.8539634 87.4259956,25.8539634 C87.0275581,25.8539634 86.8283393,25.5844322 86.8283393,25.0453697 C86.8283393,24.4594322 86.8595893,23.8813072 86.9220893,23.3109947 L86.9220893,23.3109947 L87.2970893,19.9594322 L87.4025581,18.9750572 L87.5080268,18.0727134 C87.5392768,17.7914634 87.5549018,17.5453697 87.5549018,17.3344322 C87.5549018,16.4438072 87.2306831,15.9984947 86.5822456,15.9984947 C86.0744331,15.9984947 85.3888862,16.4008384 84.525605,17.2055259 C83.6623237,18.0102134 83.2306831,18.6547447 83.2306831,19.1391197 C83.2306831,19.2719322 83.3049018,19.3969322 83.4533393,19.5141197 C84.1408393,18.1781822 84.7814643,17.5102134 85.3752143,17.5102134 C85.6330268,17.5102134 85.7619331,17.7367759 85.7619331,18.1899009 C85.7619331,18.3695884 85.7502143,18.5727134 85.7267768,18.7992759 L85.7267768,18.7992759 L85.6564643,19.5609947 C85.6252143,19.9594322 85.6056831,20.1859947 85.5978706,20.2406822 L85.5978706,20.2406822 L85.1759956,24.0844322 C85.0744331,24.9594322 85.0236518,25.5883384 85.0236518,25.9711509 C85.0236518,27.0024009 85.4103706,27.5180259 86.1838081,27.5180259 C86.8869331,27.5180259 87.7970893,27.0414634 88.9142768,26.0883384 C90.0314643,25.1352134 91.0353706,23.9750572 91.9259956,22.6078697 L91.9259956,22.6078697 L91.8088081,23.4281822 C91.7853706,23.6078697 91.7384956,23.9516197 91.6681831,24.4594322 L91.6681831,24.4594322 L91.5392768,25.3969322 C91.4845893,25.8031822 91.4572456,26.1274009 91.4572456,26.3695884 C91.4572456,27.1352134 91.7424018,27.5180259 92.3127143,27.5180259 Z M103.344832,27.5180259 C103.89952,27.5180259 104.561629,27.2133384 105.331161,26.6039634 C106.100692,25.9945884 106.485457,25.4711509 106.485457,25.0336509 C106.485457,24.9164634 106.426864,24.7836509 106.309676,24.6352134 C105.614364,25.6977134 104.942489,26.2289634 104.294051,26.2289634 C103.692489,26.2289634 103.391707,25.7875572 103.391707,24.9047447 C103.391707,24.4594322 103.442489,23.7719322 103.544051,22.8422447 L103.544051,22.8422447 L104.129989,17.6625572 L107.879989,17.6625572 L109.251082,16.3031822 L104.282332,16.3031822 L104.575301,13.5961509 L102.852645,14.1703697 L102.606551,16.3031822 L101.352645,16.3031822 L99.9815511,17.6625572 L102.454207,17.6625572 L101.879989,22.8422447 C101.747176,24.0141197 101.68077,24.8617759 101.68077,25.3852134 C101.68077,26.8070884 102.235457,27.5180259 103.344832,27.5180259 Z M120.75195,27.5180259 C121.298825,27.5180259 122.00781,27.1059165 122.878904,26.2816978 C123.749997,25.457479 124.185544,24.7914634 124.185544,24.2836509 C124.185544,24.1586509 124.087888,24.0375572 123.892575,23.9203697 C123.111325,25.3578697 122.451169,26.0766197 121.912107,26.0766197 C121.693357,26.0766197 121.583982,25.8734947 121.583982,25.4672447 C121.583982,24.9594322 121.646482,24.2680259 121.771482,23.3930259 L121.771482,23.3930259 L122.392575,19.0219322 C122.486325,18.3734947 122.5332,17.8930259 122.5332,17.5805259 C122.5332,16.5258384 122.154294,15.9984947 121.396482,15.9984947 C120.615232,15.9984947 119.675779,16.4457603 118.578122,17.3402915 C117.480466,18.2348228 116.474607,19.3695884 115.560544,20.7445884 L115.560544,20.7445884 L116.369138,13.5141197 C116.775388,9.88911966 118.138669,8.07661966 120.458982,8.07661966 C120.857419,8.07661966 121.279294,8.14302591 121.724607,8.27583841 L121.724607,8.27583841 L123.447263,6.58833841 C123.080075,6.50240091 122.701169,6.45943216 122.310544,6.45943216 C120.427732,6.45943216 118.724607,7.31685404 117.201169,9.03169779 C115.677732,10.7465415 114.779294,12.8149009 114.505857,15.2367759 L114.505857,15.2367759 L113.369138,25.5024009 L113.275388,26.3227134 L113.181638,27.1899009 L113.146482,27.5180259 L114.892575,26.8031822 L115.197263,23.9906822 C115.37695,22.4359947 115.978513,20.9809165 117.00195,19.6254478 C118.025388,18.269979 119.037107,17.5922447 120.037107,17.5922447 C120.466794,17.5922447 120.681638,17.8930259 120.681638,18.4945884 C120.681638,19.0414634 120.615232,19.7797447 120.482419,20.7094322 L120.482419,20.7094322 L120.083982,23.5453697 C119.919919,24.6781822 119.837888,25.5649009 119.837888,26.2055259 C119.837888,27.0805259 120.142575,27.5180259 120.75195,27.5180259 Z M131.537975,27.5180259 C132.842662,27.5180259 134.162975,26.7445884 135.498912,25.1977134 C135.998912,24.6117759 136.248912,24.1977134 136.248912,23.9555259 C136.248912,23.7758384 136.151256,23.6195884 135.955943,23.4867759 C135.120006,25.1664634 134.045787,26.0063072 132.733287,26.0063072 C131.405162,26.0063072 130.662975,25.0649009 130.506725,23.1820884 C132.108287,22.7524009 133.465709,21.9906822 134.57899,20.8969322 C135.692272,19.8031822 136.248912,18.6820884 136.248912,17.5336509 C136.248912,16.5102134 135.77235,15.9984947 134.819225,15.9984947 C133.498912,15.9984947 132.164928,16.910604 130.817272,18.7348228 C129.469615,20.5590415 128.795787,22.3617759 128.795787,24.1430259 C128.795787,25.1274009 129.0536,25.9359947 129.569225,26.5688072 C130.08485,27.2016197 130.7411,27.5180259 131.537975,27.5180259 Z M131.174693,21.8695884 C130.987193,21.8695884 130.780162,21.8305259 130.5536,21.7524009 C130.702037,20.5336509 131.04774,19.5238853 131.590709,18.723104 C132.133678,17.9223228 132.7411,17.5219322 133.412975,17.5219322 C134.342662,17.5219322 134.807506,17.9789634 134.807506,18.8930259 C134.807506,19.6899009 134.444225,20.3852134 133.717662,20.9789634 C132.9911,21.5727134 132.143443,21.8695884 131.174693,21.8695884 Z M150.327905,27.5180259 C150.87478,27.5180259 151.583765,27.1059165 152.454858,26.2816978 C153.325952,25.457479 153.761499,24.7914634 153.761499,24.2836509 C153.761499,24.1586509 153.667749,24.0375572 153.480249,23.9203697 C152.691187,25.3578697 152.027124,26.0766197 151.488062,26.0766197 C151.269312,26.0766197 151.159937,25.8734947 151.159937,25.4672447 C151.159937,24.9594322 151.222437,24.2680259 151.347437,23.3930259 L151.347437,23.3930259 L151.980249,19.0219322 C152.066187,18.3813072 152.109155,17.9008384 152.109155,17.5805259 C152.109155,16.5258384 151.730249,15.9984947 150.972437,15.9984947 C150.198999,15.9984947 149.263452,16.4457603 148.165796,17.3402915 C147.06814,18.2348228 146.058374,19.3695884 145.136499,20.7445884 L145.136499,20.7445884 L145.230249,19.9125572 L145.323999,19.1156822 L145.417749,18.1664634 C145.456812,17.7992759 145.476343,17.5063072 145.476343,17.2875572 C145.476343,16.4281822 145.140405,15.9984947 144.46853,15.9984947 C143.976343,15.9984947 143.302515,16.4027915 142.447046,17.2113853 C141.591577,18.019979 141.163843,18.6586509 141.163843,19.1274009 C141.163843,19.2367759 141.253687,19.3656822 141.433374,19.5141197 C142.105249,18.1859947 142.734155,17.5219322 143.320093,17.5219322 C143.570093,17.5219322 143.695093,17.7719322 143.695093,18.2719322 C143.695093,18.5688072 143.671655,18.9594322 143.62478,19.4438072 L143.62478,19.4438072 L143.554468,20.0649009 L142.945093,25.5024009 L142.851343,26.3227134 L142.757593,27.1899009 L142.722437,27.5180259 L144.46853,26.8031822 L144.784937,23.9906822 C144.956812,22.4359947 145.556421,20.9809165 146.583765,19.6254478 C147.611108,18.269979 148.62478,17.5922447 149.62478,17.5922447 C150.054468,17.5922447 150.269312,17.9008384 150.269312,18.5180259 C150.269312,19.0570884 150.202905,19.7875572 150.070093,20.7094322 L150.070093,20.7094322 L149.659937,23.5453697 C149.495874,24.6781822 149.413843,25.5649009 149.413843,26.2055259 C149.413843,27.0805259 149.71853,27.5180259 150.327905,27.5180259 Z M161.30143,27.5180259 C161.856117,27.5180259 162.518226,27.2133384 163.287758,26.6039634 C164.057289,25.9945884 164.442055,25.4711509 164.442055,25.0336509 C164.442055,24.9164634 164.383461,24.7836509 164.266273,24.6352134 C163.570961,25.6977134 162.899086,26.2289634 162.250648,26.2289634 C161.649086,26.2289634 161.348305,25.7875572 161.348305,24.9047447 C161.348305,24.4594322 161.399086,23.7719322 161.500648,22.8422447 L161.500648,22.8422447 L162.086586,17.6625572 L165.836586,17.6625572 L167.20768,16.3031822 L162.23893,16.3031822 L162.531898,13.5961509 L160.809242,14.1703697 L160.563148,16.3031822 L159.309242,16.3031822 L157.938148,17.6625572 L160.410805,17.6625572 L159.836586,22.8422447 C159.703773,24.0141197 159.637367,24.8617759 159.637367,25.3852134 C159.637367,26.8070884 160.192055,27.5180259 161.30143,27.5180259 Z M173.786673,14.4867759 C175.958548,13.1508384 177.044485,11.9594322 177.044485,10.9125572 C177.044485,10.7953697 177.005423,10.6820884 176.927298,10.5727134 C176.364798,11.2055259 175.646048,11.7016197 174.771048,12.0609947 L174.771048,12.0609947 L173.786673,14.4867759 Z M172.896048,27.5180259 C173.677298,27.5180259 174.524954,26.9555259 175.439016,25.8305259 C176.118704,25.0024009 176.458548,24.4477134 176.458548,24.1664634 C176.458548,24.0492759 176.353079,23.9281822 176.142141,23.8031822 C175.446829,25.2719322 174.771048,26.0063072 174.114798,26.0063072 C173.919485,26.0063072 173.821829,25.8383384 173.821829,25.5024009 C173.821829,25.2524009 173.87261,24.7563072 173.974173,24.0141197 L173.974173,24.0141197 L174.09136,23.2641197 L174.571829,19.9125572 C174.649954,19.3422447 174.692923,19.0258384 174.700735,18.9633384 L174.700735,18.9633384 L174.806204,18.1781822 C174.868704,17.6938072 174.899954,17.3734947 174.899954,17.2172447 C174.899954,16.4047447 174.606985,15.9984947 174.021048,15.9984947 C173.49761,15.9984947 172.796438,16.4008384 171.917532,17.2055259 C171.038626,18.0102134 170.599173,18.6508384 170.599173,19.1274009 C170.599173,19.2602134 170.673391,19.3930259 170.821829,19.5258384 C171.524954,18.1820884 172.181204,17.5102134 172.790579,17.5102134 C173.009329,17.5102134 173.118704,17.7055259 173.118704,18.0961509 C173.118704,18.2836509 173.099173,18.5141197 173.06011,18.7875572 L173.06011,18.7875572 L172.96636,19.4320884 L172.849173,20.2406822 L172.392141,23.4281822 C172.157766,25.0766197 172.040579,26.0609947 172.040579,26.3813072 C172.040579,27.1391197 172.325735,27.5180259 172.896048,27.5180259 Z M183.857853,27.5180259 C184.701603,27.5180259 185.629338,27.1215415 186.641056,26.3285728 C187.652775,25.535604 188.158634,24.8149009 188.158634,24.1664634 C188.158634,24.0024009 188.072697,23.8266197 187.900822,23.6391197 C187.236759,25.1625572 186.322697,25.9242759 185.158634,25.9242759 C184.471134,25.9242759 183.914494,25.6000572 183.488713,24.9516197 C183.062931,24.3031822 182.850041,23.4477134 182.850041,22.3852134 C182.850041,20.8774009 183.144963,19.6899009 183.734806,18.8227134 C184.32465,17.9555259 185.131291,17.5219322 186.154728,17.5219322 C186.725041,17.5219322 187.322697,17.6508384 187.947697,17.9086509 L187.947697,17.9086509 L189.283634,16.3031822 C188.853947,16.1000572 188.334416,15.9984947 187.725041,15.9984947 C186.045353,15.9984947 184.518009,16.8266197 183.143009,18.4828697 C181.768009,20.1391197 181.080509,21.9789634 181.080509,24.0024009 C181.080509,25.0414634 181.340275,25.8871665 181.859806,26.5395103 C182.379338,27.191854 183.045353,27.5180259 183.857853,27.5180259 Z" id="authentic" fill="#D26E4B"></path>
        </g>
    </g>
</svg>