<svg
        fill="none"
        height="780"
        viewBox="0 0 897 780"
        width="897"
        xmlns="http://www.w3.org/2000/svg"
>
    <g opacity="0.1">
        <path
                d="M179.445 210.161C278.549 210.161 358.89 129.821 358.89 30.7161C358.89 -68.3886 278.549 -148.729 179.445 -148.729C80.3402 -148.729 0 -68.3886 0 30.7161C0 129.821 80.3402 210.161 179.445 210.161Z"
                fill="white"
        />
        <path
                d="M684.64 -141.15C700.439 -156.95 726.129 -156.95 741.928 -141.15L885.151 2.07141C900.95 17.8708 900.95 43.5608 885.151 59.3602L741.928 202.582C726.129 218.381 700.439 218.381 684.64 202.582L541.418 59.3602C525.619 43.5608 525.619 17.8708 541.418 2.07141L684.64 -141.15Z"
                fill="white"
        />
        <path
                d="M598.061 315.36C598.061 443.939 558.755 529.615 446.361 529.615C333.839 529.615 294.661 443.939 294.661 315.36H0.125C0.125 581.38 166.211 779.45 446.361 779.45C726.639 779.45 892.597 581.252 892.597 315.36H598.061Z"
                fill="white"
        />
    </g>
</svg>